<svg width="1538" height="902" viewBox="0 0 1538 902" fill="none" xmlns="http://www.w3.org/2000/svg">
<g opacity="0.5">
<path d="M432.047 202.87C402.294 178.882 344.29 151.633 307.282 142.091C298.738 139.888 289.788 138.32 281.116 139.951C272.444 141.582 264.045 146.96 260.876 155.195C257.706 163.43 261.379 174.284 269.693 177.24C259.149 174.356 248.376 171.446 237.463 172.087C226.551 172.729 215.278 177.564 209.704 186.967C204.131 196.371 206.452 210.505 216.162 215.527C209.717 209.977 199.315 209.732 192.616 214.973C185.918 220.213 183.652 230.369 187.488 237.959C180.286 233.08 172.938 228.063 167.783 221.056C162.628 214.05 160.001 204.548 163.297 196.498C166.594 188.448 177.077 183.407 184.613 187.752C173.784 177.98 162.746 167.948 155.773 155.136C148.799 142.325 146.543 125.977 153.745 113.292C162.308 98.2067 182.071 92.4045 199.158 95.3904C216.246 98.3762 231.204 108.369 245.145 118.691C238.377 111.904 238.853 100.095 244.313 92.2172C249.772 84.3394 259.022 79.8784 268.326 77.5756C297.228 70.4232 328.213 81.5088 351.699 99.8086C375.185 118.108 415.054 178.421 432.047 202.87Z" fill="#407BFF"/>
</g>
<g opacity="0.5">
<path d="M189.257 26.5808C185.965 24.6443 181.898 22.9381 178.453 24.5883C175.625 25.9427 174.166 29.2893 174.24 32.4243C174.315 35.5594 175.654 38.521 177.17 41.2661C185.471 56.2963 210.963 76.232 223.952 72.9122C219.12 53.7022 206.331 36.6242 189.257 26.5808Z" fill="#407BFF"/>
</g>
<g opacity="0.5">
<path d="M267.626 29.868C266.187 29.0219 264.41 28.2761 262.905 28.9974C261.669 29.5895 261.031 31.052 261.063 32.4219C261.096 33.7922 261.681 35.0865 262.344 36.2863C265.972 42.855 277.113 51.5676 282.789 50.1167C280.677 41.7212 275.088 34.2575 267.626 29.868Z" fill="#407BFF"/>
</g>
<path d="M701.412 450.865C676.483 472.261 309.807 527.457 233.47 496.399C157.983 465.688 243.024 420.735 278.029 409.314C313.034 397.893 372.386 388.454 440.524 335.132C490.733 295.842 552.057 285.26 577.254 285.328C605.007 285.402 641.968 294.061 641.968 294.061C670.049 339.335 717.139 438.445 717.139 438.445L701.412 450.865Z" fill="#FFB5AF"/>
<path d="M1378.01 305.982C1378.91 306.895 1392.3 313.551 1397.5 315.503C1402.69 317.456 1443.9 317.8 1441.61 312.727C1439.32 307.654 1437.49 306.706 1428.55 305.497C1419.6 304.287 1411.25 303.979 1413.5 301.714C1415.75 299.45 1442.22 296.024 1449.57 298.642C1456.91 301.26 1470.05 306.439 1473.62 301.875C1477.2 297.312 1471.75 293.883 1471.75 293.883C1471.75 293.883 1479.2 293.571 1476.56 289.366C1473.93 285.16 1455.01 268.617 1446.1 266.529C1437.19 264.44 1386.67 273.089 1377.19 273.702C1374.35 273.887 1356.61 278.125 1356.61 278.125L1344.28 308.973L1378.01 305.982Z" fill="#FFB5AF"/>
<path d="M939.696 327.805L941.661 232.652C959.233 234.577 977.387 235.692 995.53 237.046L1050.21 240.52C1086.83 243.003 1123.36 245.303 1160.64 250.145L1167.63 251.116L1174.7 252.27L1181.82 253.427L1189.02 254.945C1191.4 255.41 1193.92 256.001 1195.95 256.331C1198.12 256.668 1200.32 256.767 1202.52 256.627C1206.92 256.052 1211.34 255.892 1215.75 256.147C1224.4 257.551 1233.08 259.494 1241.82 260.783C1246.33 261.583 1250.62 262.134 1255.04 262.751C1259.46 263.368 1263.83 264.042 1268.25 264.659C1303.63 269.296 1339.78 272.175 1375.58 274.443L1376.75 305.068C1367.57 307.282 1358.4 309.199 1349.25 310.817L1335.53 313.126C1330.96 313.816 1326.39 314.506 1321.82 315.077C1303.55 317.599 1284.86 319.385 1266.25 320.28C1257.15 320.826 1247.6 321.054 1238.25 320.991C1233.72 320.788 1228.9 321.048 1224.19 320.836L1217.17 320.52C1214.81 320.414 1212.64 320.317 1210.1 320.202C1205.4 319.337 1200.79 317.91 1196.31 315.94C1194.02 315.127 1191.7 314.484 1189.36 314.015C1186.88 313.545 1184.84 313.454 1182.81 313.302L1176.52 312.721L1163.57 312.139L1157 311.843C1139.4 311.529 1121.49 312.097 1103.56 313.081L1008.15 320.732L995.11 322.057L939.696 327.805Z" fill="#FFB5AF"/>
<path opacity="0.2" d="M1017.6 238.448C1017.6 238.448 1000.1 321.551 1000.07 321.554C1000.04 321.557 990.484 322.95 990.484 322.95L997.33 237.167L1017.6 238.448Z" fill="black"/>
<path opacity="0.2" d="M284.295 407.363C284.295 407.363 331.2 451.696 416.095 450.921C500.991 450.146 514.566 428.592 514.566 428.592L312.481 397.062L284.295 407.363Z" fill="black"/>
<path d="M686.393 432.036C653.94 446.845 289.661 418.074 219.155 360.938C149.435 304.439 210.122 249.768 250.126 248.735C290.128 247.703 378.458 267.654 465.619 232.652C529.845 206.86 579.788 208.993 606.105 217.046C635.091 225.915 671.136 246.81 671.136 246.81C686.953 303.748 706.545 423.837 706.545 423.837L686.393 432.036Z" fill="#FFB5AF"/>
<path opacity="0.2" d="M1029.88 239.229C1030.5 239.268 1041.23 258.028 1072.3 258.241C1099.97 258.429 1110.8 244.915 1110.8 244.915L1029.88 239.229Z" fill="black"/>
<path d="M671.713 248.832L692.058 453.763C692.058 453.763 760.121 435.888 846.341 411.265C899.732 396.018 974.629 392.669 993.022 311.497L997.907 254.22C993.639 224.541 988.907 217.614 982.62 203.421C975.701 187.801 952.489 158.299 935.428 159.175C907.124 160.63 860.687 182.972 783.853 229.587C750.927 249.564 700.111 247.035 671.713 248.832Z" fill="#407BFF"/>
<path d="M600.371 215.484C600.371 215.484 602.899 366.492 514.566 428.593C559.284 448.031 609.517 459.826 663.232 466.795L733.384 442.256C733.384 442.256 738.095 250.321 733.384 250.163C728.673 250.006 637.089 217.932 600.371 215.484Z" fill="#407BFF"/>
<path d="M603.181 234.746C633.531 242.977 663.965 250.944 694.517 258.393C712.15 262.693 729.698 268.455 747.955 265.04C766.993 261.48 784.902 252.27 801.245 242.178C811.517 235.834 821.609 228.918 830.893 221.177C832.093 220.176 830.369 218.467 829.177 219.461C821.616 225.766 813.462 231.446 805.211 236.796C789.335 247.09 772.176 256.449 753.765 261.249C744.88 263.565 735.426 264.833 726.301 263.232C717.194 261.635 708.164 259.198 699.181 257.029C679.203 252.203 659.296 247.084 639.415 241.873C627.541 238.761 615.674 235.619 603.826 232.406C602.317 231.997 601.673 234.337 603.181 234.746Z" fill="white"/>
<path d="M602.761 224.59C633.111 232.821 663.545 240.788 694.097 248.237C711.73 252.536 729.278 258.299 747.535 254.884C766.573 251.324 784.482 242.114 800.825 232.021C811.097 225.678 821.189 218.762 830.473 211.021C831.673 210.019 829.949 208.311 828.757 209.305C821.196 215.61 813.042 221.29 804.791 226.64C788.915 236.934 771.756 246.293 753.345 251.092C744.46 253.409 735.006 254.676 725.881 253.076C716.774 251.478 707.744 249.042 698.761 246.872C678.783 242.047 658.876 236.928 638.995 231.717C627.121 228.604 615.254 225.463 603.406 222.25C601.897 221.84 601.253 224.181 602.761 224.59Z" fill="white"/>
<path opacity="0.6" d="M855.305 274.375C844.222 269.055 726.269 301.061 717.139 313.132C709.7 322.967 731.808 386.575 740.494 410.523C742.374 415.706 747.846 418.634 753.202 417.326C784.474 409.691 883.494 385.378 887.226 382.766C891.659 379.663 866.389 279.695 855.305 274.375Z" fill="white"/>
<path d="M855.305 274.375C851.817 272.701 835.947 275.387 815.554 280.228L846.057 394.159L846.062 394.158C868.667 388.367 885.803 383.762 887.226 382.767C891.659 379.664 866.389 279.695 855.305 274.375Z" fill="#263238"/>
<path d="M795.782 319.528L757.784 330.818L755.172 322.024L786.113 312.829L783.854 305.227L790.911 303.132L795.782 319.528Z" fill="#263238"/>
<path d="M775.351 363.699L768.187 365.829L759.654 337.112L765.355 335.418L783.55 345.963C787.756 348.374 789.886 348.393 791.733 347.846C794.717 346.958 795.842 344.383 794.648 340.361C793.681 337.106 791.609 334.708 788.508 333.621L790.733 325.99C795.891 327.649 800.241 332.142 802.272 338.98C804.789 347.451 802.122 354.387 795.229 356.434C791.538 357.531 787.864 357.499 781.345 353.647L770.497 347.362L775.351 363.699Z" fill="#263238"/>
<path d="M789.222 394.077C782.817 395.983 775.487 392.782 772.276 381.979C770.696 376.66 770.532 370.742 772.041 366.274L779.789 367.693C778.471 371.216 778.419 375.605 779.596 379.571C780.902 383.966 783.498 386.149 786.593 385.227C789.469 384.374 790.632 381.726 789.148 376.733L787.954 372.714L793.761 370.986L804.933 376.174L800.127 359.996L807.184 357.901L815.089 384.503L809.388 386.197L797.068 380.519C798.014 387.685 794.812 392.418 789.222 394.077Z" fill="#263238"/>
<path opacity="0.6" d="M875.97 278.985C877.908 280.536 897.067 364.01 902.22 369.316C907.374 374.621 915.122 368.931 915.122 368.931C915.122 368.931 891.866 273.231 888.247 274.332C884.628 275.433 875.97 278.985 875.97 278.985Z" fill="white"/>
<path d="M997.492 255.594C999.818 240.441 1000.22 237.814 1010.66 231.134C1016.52 227.283 1023.51 224.346 1030.63 221.86L1027.68 206.865L1031.33 140.619C1013.47 163.958 997.72 188.412 968.554 181.619C968.554 181.619 955.218 259.866 997.492 255.594Z" fill="#FFB5AF"/>
<path opacity="0.2" d="M1008.41 232.651C1005.45 218.011 1005.82 198.69 1018.16 189.811C1023.38 186.104 1028.77 183.079 1032.66 181.619L1024.53 224.131C1018.97 226.276 1015.71 228.163 1008.41 232.651Z" fill="black"/>
<path d="M1063.88 98.7214C1031.23 134.157 1016.7 148.43 1014.64 183.67C1011.54 236.676 1059.4 270.646 1101.3 246.073C1139.01 223.955 1186.07 169.723 1169.44 121.256C1153.06 73.5058 1096.52 63.2863 1063.88 98.7214Z" fill="#FFB5AF"/>
<path d="M1094.77 154.857C1091.16 158.436 1089.91 163.271 1091.98 165.656C1094.05 168.04 1098.65 167.071 1102.25 163.492C1105.86 159.914 1107.11 155.079 1105.04 152.694C1102.98 150.31 1098.38 151.278 1094.77 154.857Z" fill="#263238"/>
<path d="M1126.6 189.865C1123.11 193.341 1121.96 198.086 1124.02 200.465C1126.08 202.841 1130.58 201.952 1134.07 198.475C1137.56 195 1138.71 190.254 1136.65 187.876C1134.59 185.498 1130.09 186.389 1126.6 189.865Z" fill="#263238"/>
<path d="M1101.17 135.572C1101.53 136.072 1102.08 136.413 1102.72 136.471C1112.76 137.365 1116.55 145.151 1116.6 145.242C1117.16 146.398 1118.51 146.855 1119.64 146.222C1120.76 145.585 1121.21 144.119 1120.65 142.938C1120.46 142.529 1115.7 132.75 1103.24 131.643C1102 131.533 1100.88 132.525 1100.73 133.858C1100.66 134.499 1100.83 135.106 1101.17 135.572Z" fill="#263238"/>
<path d="M1155.14 185.525C1155.58 185.774 1156.12 185.833 1156.65 185.637C1157.75 185.232 1158.42 183.91 1158.14 182.687C1155.36 170.417 1146.43 167.529 1146.05 167.413C1144.97 167.082 1143.81 167.823 1143.44 169.071C1143.07 170.315 1143.64 171.591 1144.71 171.927C1145.06 172.035 1151.95 174.39 1154.16 184.148C1154.3 184.779 1154.67 185.261 1155.14 185.525Z" fill="#263238"/>
<path d="M1119.71 178.747C1119.71 178.747 1111.42 196.359 1108.79 210.148C1108.33 212.559 1105.6 213.795 1103.42 212.655C1097.83 209.722 1094.65 203.255 1094.65 203.255L1119.71 178.747Z" fill="#FF726E"/>
<path d="M1103.68 151.494L1112.99 157.919C1112.99 157.919 1102.86 158.958 1103.68 151.494Z" fill="#263238"/>
<path d="M1135.81 187.112L1145.12 193.536C1145.12 193.536 1134.99 194.576 1135.81 187.112Z" fill="#263238"/>
<path d="M1052.72 133.265C1052.72 133.265 1099.13 117.178 1106.04 99.8471C1112.95 82.5167 1069.38 89.3391 1068.02 89.6798C1066.65 90.0205 1049.28 106.714 1049.28 106.714L1052.72 131.634" fill="#263238"/>
<path d="M1052.72 133.265C1052.72 133.265 1099.13 117.178 1106.04 99.8471C1112.95 82.5167 1069.38 89.3391 1068.02 89.6798C1066.65 90.0205 1049.28 106.714 1049.28 106.714L1052.72 131.634" fill="#263238"/>
<path d="M1025.94 113.731C1022.44 124.534 1024.03 135.509 1028.12 143.194C1034.27 154.751 1053.82 145.924 1060.35 134.176C1066.23 123.599 1063.49 109.257 1053.35 101.761C1043.36 94.3781 1029.94 101.378 1025.94 113.731Z" fill="#FFB5AF"/>
<path d="M1079.07 189.957C1078.76 189.65 1078.36 189.429 1077.9 189.338C1076.67 189.092 1075.49 189.893 1075.27 191.13C1073.09 203.539 1080.69 210.913 1080.99 211.288C1081.91 212.168 1083.35 212.153 1084.2 211.252C1085.06 210.354 1085.01 208.918 1084.11 208.035C1083.78 207.74 1077.99 201.984 1079.74 192.024C1079.88 191.245 1079.6 190.478 1079.07 189.957Z" fill="#263238"/>
<path opacity="0.2" d="M1047.25 136.208C1047.07 136.208 1046.89 136.148 1046.74 136.024C1046.39 135.739 1046.35 135.229 1046.63 134.885C1049.25 131.709 1050.99 127.856 1051.65 123.737C1052.09 121.046 1052.2 117.134 1050.25 113.774C1048.48 110.728 1045.04 108.868 1042.1 109.32C1041.65 109.385 1041.25 109.086 1041.18 108.647C1041.11 108.205 1041.41 107.791 1041.85 107.721C1045.5 107.156 1049.52 109.3 1051.65 112.962C1053.84 116.735 1053.73 121.045 1053.25 123.996C1052.54 128.396 1050.68 132.518 1047.87 135.915C1047.72 136.109 1047.49 136.208 1047.25 136.208Z" fill="black"/>
<path d="M1167.12 91.4409C1119.15 25.8901 1006.88 36.1811 1009.67 167.334C1009.67 167.334 1041.98 128.134 1063.09 117.674C1063.09 117.674 1111.74 104.618 1143.33 119.768C1183.62 139.09 1158.25 182.887 1158.25 182.887C1155.88 193.434 1149.94 201.094 1144.05 209.86C1144.05 209.86 1217.65 160.501 1167.12 91.4409Z" fill="#407BFF"/>
<path d="M1110.8 170.725C1110.8 170.725 1117.71 170.54 1121.25 174.321C1124.79 178.102 1122.13 185.883 1122.16 185.754C1122.19 185.624 1130.33 177.272 1130.33 177.272L1116.9 160.276C1116.9 160.276 1113.67 168.255 1110.8 170.725Z" fill="#407BFF"/>
<path d="M1118.26 160.868C1118.12 159.004 1117.16 157.312 1116.17 155.727C1110.36 146.443 1102.77 138.285 1093.92 131.837C1092.14 130.541 1090.19 129.27 1087.99 129.154C1085.79 129.038 1082.41 131.194 1080.43 133.723C1076.36 140.383 1075.03 148.751 1077.25 156.236C1079.46 163.72 1085.29 170.133 1092.67 172.663C1100.06 175.192 1108.8 173.599 1114.56 168.331C1116.68 166.39 1118.47 163.735 1118.26 160.868Z" fill="#263238"/>
<path d="M1157.85 196.35C1157.37 194.59 1156.17 193.161 1154.97 191.84C1147.9 184.1 1142.6 180.527 1133.3 176.117C1131.43 175.23 1129.4 174.403 1127.37 174.731C1125.35 175.06 1122.67 177.805 1121.34 180.626C1118.9 187.826 1119.06 196.249 1122.73 202.847C1126.43 209.493 1131.71 212.597 1138.93 213.545C1146.15 214.492 1151.65 210.449 1155.9 204.246C1157.46 201.961 1158.59 199.057 1157.85 196.35Z" fill="#263238"/>
<path d="M1080.43 133.722L1041.98 71.5377L1049.28 65.6621L1087.99 129.153L1080.43 133.722Z" fill="#407BFF"/>
<path opacity="0.4" d="M1080.43 133.722L1041.98 71.5377L1049.28 65.6621L1087.99 129.153L1080.43 133.722Z" fill="white"/>
<g opacity="0.4">
<path d="M1134.36 89.1403C1125.32 89.28 1116.25 89.4185 1107.27 88.4116C1105.15 88.1741 1102.99 87.8596 1101.09 86.8934C1099.19 85.9276 1097.57 84.1917 1097.26 82.0824C1096.96 79.973 1098.32 77.602 1100.43 77.2616C1095.25 76.8503 1090.07 76.4391 1084.89 76.0278C1082.74 75.8573 1080.56 75.6784 1078.56 74.8795C1076.56 74.0806 1074.73 72.5524 1074.12 70.4875C1073.5 68.4225 1074.44 65.8569 1076.46 65.105C1076.46 65.105 1065.58 68.6904 1073.93 75.3545C1082.28 82.0186 1094.65 79.7523 1094.65 79.7523C1094.65 79.7523 1088.31 90.9043 1102.57 92.3853C1116.84 93.8659 1134.36 89.1403 1134.36 89.1403Z" fill="white"/>
</g>
<g opacity="0.2">
<path d="M1108.18 151.905C1104.52 146.203 1100.18 140.351 1093.78 138.087C1086.57 137.135 1082.94 142.273 1081.39 147.544C1079.84 152.814 1081.51 158.781 1085.2 162.847C1088.9 166.913 1094.41 169.115 1099.9 169.245C1102.23 169.3 1104.6 168.994 1106.7 167.988C1108.79 166.982 1110.59 165.213 1111.28 162.995C1112.47 159.207 1110.33 155.245 1108.18 151.905Z" fill="white"/>
</g>
<g opacity="0.2">
<path d="M1148.28 189.766C1143.64 185.24 1138.35 180.721 1131.93 179.988C1125.03 180.654 1122.77 186.223 1122.47 191.469C1122.18 196.714 1125.01 201.917 1129.32 204.911C1133.62 207.906 1139.22 208.77 1144.35 207.709C1146.51 207.259 1148.65 206.463 1150.38 205.075C1152.1 203.686 1153.39 201.651 1153.55 199.434C1153.84 195.647 1151 192.416 1148.28 189.766Z" fill="white"/>
</g>
<path d="M1006.83 114.378C1009.79 101.488 1014.46 88.9798 1022.01 78.0371C1030.01 66.4326 1040.95 57.4466 1053.33 50.8555C1054.71 50.1216 1053.49 48.0261 1052.11 48.76C1039.6 55.4161 1028.61 64.4828 1020.41 76.0986C1012.47 87.3493 1007.56 100.383 1004.49 113.733C1004.14 115.253 1006.48 115.902 1006.83 114.378Z" fill="#407BFF"/>
<path d="M940.956 164.148C940.956 164.148 860.947 -15.5076 793.058 1.19282C725.168 17.8932 632.23 109.28 632.23 109.28L652.227 134.132C652.227 134.132 763.172 71.5372 784.632 70.1627C806.092 68.7882 849.234 195.915 849.234 195.915L940.956 164.148Z" fill="#FFB5AF"/>
<path d="M817.07 209.861C817.07 209.861 823.794 225.502 881.033 216.149C938.271 206.797 958.914 171.157 958.405 170.791C957.896 170.424 946.249 148.604 928.797 139.072C905.792 126.506 817.07 209.861 817.07 209.861Z" fill="#FFB5AF"/>
<path d="M652.227 134.132C651.994 135.39 644.603 148.391 641.383 152.913C638.163 157.435 604.173 180.738 603.241 175.25C602.309 169.762 603.293 167.956 610.036 161.957C616.779 155.958 623.538 151.035 620.405 150.415C617.271 149.795 593.401 161.739 588.773 168.012C584.146 174.284 576.142 185.917 570.626 184.13C565.11 182.344 567.717 176.454 567.717 176.454C567.717 176.454 561.363 180.356 561.2 175.396C561.036 170.437 567.487 146.149 573.711 139.439C579.936 132.729 626.671 111.685 634.874 106.901C637.339 105.464 654.422 99.0693 654.422 99.0693L681.878 117.77L652.227 134.132Z" fill="#FFB5AF"/>
<path opacity="0.2" d="M786.593 70.3796L788.675 42.3784C788.675 42.3784 801.417 57.1193 795.721 77.5928C795.721 77.5928 788.553 70.5967 786.593 70.3796Z" fill="black"/>
<path opacity="0.2" d="M846.158 184.315C846.158 184.315 877.831 194.148 881.977 195.916C881.977 195.916 881.056 199.345 831.191 197.123L846.158 184.315Z" fill="black"/>
<g opacity="0.5">
<path d="M852.438 82.666C853.725 81.3734 853.937 79.3906 854.078 77.5721C854.778 68.5104 855.479 59.4484 856.179 50.3863C861.757 51.8767 863.531 60.1369 869.202 61.2202C872.365 61.8246 875.597 59.6962 877.071 56.8324C877.3 56.3862 877.436 55.9083 877.598 55.4391C851.76 21.3963 821.358 -5.76915 793.058 1.19265C772.477 6.25513 749.602 18.1966 727.705 32.3593C727.906 39.2253 729.832 47.1103 736.192 49.4762C739.763 50.8044 743.85 49.8896 747.163 48.0094C750.477 46.1289 753.188 43.3724 755.945 40.7422C761.058 35.8628 766.476 31.3035 772.158 27.0998C776.325 24.0162 781.517 20.9857 786.407 22.7071C790.02 23.9787 792.297 27.5062 793.993 30.9405C795.689 34.3748 797.192 38.0967 800.159 40.5205C803.124 42.944 808.158 43.3747 810.41 40.2766C811.606 38.6319 811.893 36.2333 813.65 35.2122C815.217 34.3023 817.315 35.0022 818.565 36.3136C819.814 37.625 820.423 39.4013 821.031 41.1075C825.889 54.7217 832.953 67.5459 841.865 78.9269C843.176 80.601 844.587 82.2936 846.493 83.2365C848.399 84.179 850.937 84.1729 852.438 82.666Z" fill="#407BFF"/>
</g>
<g opacity="0.5">
<path d="M1117.91 304.226C1026.03 303.032 935.88 276.239 844.009 274.131C747.087 271.907 651.164 297.207 554.219 296.494C462.054 295.816 371.811 271.706 280.881 256.229C189.952 240.751 90.7657 251.748 0.294678 269.845V897.302L1530.79 901.857L1537.35 310.759C1487.5 167.915 1262.38 306.104 1117.91 304.226Z" fill="#407BFF"/>
</g>
<g opacity="0.3">
<path d="M1123.66 304.228C1031.62 306.039 955.098 278.371 863.227 276.263C766.303 274.038 672.334 286.624 575.672 294.053C479.291 301.461 382.979 274.115 292.29 257.287C193.375 238.934 90.7657 251.748 0.294678 269.845V285.816C107.176 258.548 251.698 261.61 348.875 314.637C387.753 335.852 429.264 363.965 472.054 353.364C494.45 347.815 513.871 331.949 536.732 329.029C573.564 324.324 606.463 354.002 643.369 358.062C711.652 365.576 767.666 285.647 835.857 293.998C879.815 299.382 914.134 340.773 958.293 343.973C1000.79 347.052 1038.66 313.856 1081.21 311.687C1109.09 310.266 1135.76 322.292 1163.17 327.738C1190.58 333.184 1223.6 329.632 1239.2 305.831C1304.67 305.616 1370.56 270.425 1431.56 246.003C1329.61 248.07 1222.55 302.282 1123.66 304.228Z" fill="white"/>
</g>
<path opacity="0.2" d="M3.81348 603.397C3.81348 603.397 245.961 731.928 382.766 717.809C519.572 703.689 904.387 505.645 1111.14 479.763C1317.89 453.882 1537.35 548.35 1537.35 548.35V679.614C1537.35 679.614 1267.14 481.469 1117.61 522.211C968.086 562.953 626.595 808.849 352.431 825.65C78.2668 842.451 3.81348 784.613 3.81348 784.613V603.397Z" fill="white"/>
<path opacity="0.3" d="M1089.52 342.682C1089.52 349.858 1077.22 355.675 1062.05 355.675C1046.87 355.675 1034.57 349.858 1034.57 342.682C1034.57 335.507 1046.87 329.689 1062.05 329.689C1077.22 329.689 1089.52 335.506 1089.52 342.682Z" fill="white"/>
<path opacity="0.3" d="M452.42 544.449C507.442 546.381 562.607 542.658 616.876 533.378C671.769 523.992 725.698 508.942 777.484 488.454C828.614 468.227 876.642 441.471 926.389 418.235C951.857 406.338 977.863 395.466 1004.77 387.258C1031.86 378.996 1059.7 373.343 1087.76 369.598C1144.61 362.011 1202.14 362.072 1259.37 362.974C1266.38 363.084 1273.38 363.208 1280.38 363.333C1281.94 363.362 1281.94 360.935 1280.38 360.907C1223.56 359.888 1166.54 358.938 1109.91 364.597C1082.1 367.376 1054.41 371.756 1027.28 378.517C1000.53 385.183 974.581 394.428 949.268 405.305C898.488 427.126 850.428 454.708 799.704 476.652C748.457 498.821 694.846 515.526 640.12 526.583C585.141 537.691 529.008 543.065 472.918 542.495C466.084 542.426 459.251 542.262 452.42 542.022C450.858 541.967 450.86 544.394 452.42 544.449Z" fill="#407BFF"/>
<path opacity="0.3" d="M667.958 556.102C711.827 552.28 754.697 540.505 794.361 521.378C795.767 520.7 794.538 518.607 793.136 519.283C753.879 538.213 711.377 549.893 667.958 553.675C666.414 553.809 666.4 556.237 667.958 556.102Z" fill="#407BFF"/>
<path opacity="0.3" d="M814.642 511.306C819.692 511.105 824.546 508.992 828.106 505.399C829.207 504.289 827.492 502.572 826.39 503.683C823.285 506.817 819.055 508.704 814.642 508.879C813.086 508.94 813.078 511.368 814.642 511.306Z" fill="#407BFF"/>
</svg>
